# xmcd
#
# Track frame offsets: 
#        187
#        13095
#        25912
#        37225
#        50682
#        67580
#        85225
#        99410
#        113582
#        124277
#
# Disc length: 1872 seconds
#
# Revision: 2
# Processed by: cddbd v1.5PL3 Copyright (c) Steve Scherf et al.
# Submitted via: ExactAudioCopy v0.95a3
#
DISCID=7d074e0a
DTITLE=Patty Loveless - Patty Loveless
DYEAR=1987
DGENRE=Country
TTITLE0=Lonely Days, Lonely Nights
TTITLE1=I Did
TTITLE2=You Are Everything
TTITLE3=Blue Is Not A Word
TTITLE4=Slow Healing Heart
TTITLE5=After All
TTITLE6=Wicked Ways
TTITLE7=Half Over You
TTITLE8=Some Blue Moons Ago
TTITLE9=Sounds Of Loneliness
EXTD=
EXTT0=
EXTT1=
EXTT2=
EXTT3=
EXTT4=
EXTT5=
EXTT6=
EXTT7=
EXTT8=
EXTT9=
PLAYORDER=
